<?xml version="1.0" encoding="utf-8"?>
<!-- Generator: Adobe Illustrator 22.1.0, SVG Export Plug-In . SVG Version: 6.00 Build 0)  -->
<svg version="1.1" id="レイヤー_1" xmlns="http://www.w3.org/2000/svg" xmlns:xlink="http://www.w3.org/1999/xlink" x="0px"
	 y="0px" viewBox="0 0 134 44.7" style="enable-background:new 0 0 134 44.7;" xml:space="preserve">
<style type="text/css">
	.st0{fill:#FFFFFF;}
</style>
<title>logo_1</title>
<g id="レイヤー_2_1_">
	<g id="text">
		<path class="st0" d="M57.5,8.7h3.6v3.8h3.3V8.7h3.6v10.8h-3.6v-3.9h-3.3v3.9h-3.6L57.5,8.7z"/>
		<path class="st0" d="M73.7,8.7h3.6v10.8h-3.6L73.7,8.7z"/>
		<path class="st0" d="M82.9,8.6h5.3C89.6,8.5,91,9,92.1,9.9c0.7,0.7,1,1.6,1,2.6l0,0c0.1,1.4-0.8,2.8-2.1,3.3l2.5,3.7h-4.1
			l-2.1-3.1h-0.8v3.1H83L82.9,8.6z M88.1,13.8c0.9,0,1.4-0.4,1.4-1.1l0,0c0-0.7-0.5-1-1.4-1h-1.6v2.1L88.1,13.8z"/>
		<path class="st0" d="M97.5,14L97.5,14c0-3.2,2.6-5.7,5.8-5.7c0,0,0.1,0,0.1,0c3.1-0.1,5.8,2.3,5.9,5.4c0,0.1,0,0.1,0,0.2l0,0
			c-0.1,3.3-2.9,5.8-6.1,5.7C100.1,19.5,97.6,17.1,97.5,14z M105.7,14L105.7,14c0.1-1.3-0.9-2.4-2.2-2.4c0,0,0,0-0.1,0
			c-1.3,0-2.3,1.1-2.2,2.3c0,0,0,0.1,0,0.1l0,0c-0.1,1.2,0.8,2.4,2,2.5c1.2,0.1,2.4-0.8,2.5-2C105.7,14.3,105.7,14.1,105.7,14z"/>
		<path class="st0" d="M60.4,28.4h-3.2v-3.1h10v3H64v7.8h-3.6L60.4,28.4z"/>
		<path class="st0" d="M73.9,25.2h3.6l4.6,10.9h-3.9l-0.6-1.5h-3.8l-0.6,1.5h-3.9L73.9,25.2z M76.7,32.1l-1-2.6l-1,2.6L76.7,32.1z"
			/>
		<path class="st0" d="M84,34.3l2.4-2c0.3,0.5,0.8,0.9,1.4,0.9c0.6,0,1-0.5,1-1.3v-6.7h3.5v6.7c0.1,1.2-0.3,2.3-1.1,3.2
			c-0.8,0.8-2,1.2-3.1,1.2C86.4,36.4,84.9,35.7,84,34.3z"/>
		<path class="st0" d="M97.5,25.2h3.6v10.8h-3.6L97.5,25.2z"/>
		<path class="st0" d="M105.8,25.2h3.8l2.3,3.8l2.3-3.8h3.8V36h-3.6v-5.4l-2.5,3.9h-0.1l-2.5-3.8V36h-3.6L105.8,25.2z"/>
		<path class="st0" d="M125.8,25h3.6l4.6,10.9h-3.9l-0.6-1.5h-3.8l-0.5,1.5h-3.9L125.8,25z M128.6,31.9l-1-2.6l-1,2.6H128.6z"/>
		
			<rect x="13.4" y="31.7" transform="matrix(0.7071 -0.7071 0.7071 0.7071 -19.6878 21.586)" class="st0" width="5.6" height="5.6"/>
		<polygon class="st0" points="24.5,22.3 28.4,26.3 34.5,20.2 40.7,26.3 44.7,22.3 28.4,6.1 24.5,10.1 30.6,16.2 		"/>
		<polygon class="st0" points="20.2,10.1 20.2,10.1 26.3,4 22.3,0 0,22.3 4,26.3 10.1,20.2 16.2,26.3 16.2,26.3 24.5,34.5 
			18.3,40.7 22.3,44.7 38.5,28.4 34.5,24.4 28.4,30.6 20.2,22.3 20.2,22.3 14.1,16.2 		"/>
	</g>
</g>
</svg>
