<svg xmlns="http://www.w3.org/2000/svg" viewBox="0 0 134 44.66"><defs><style>.cls-1{fill:#001f37;}</style></defs><title>logo_1</title><g id="レイヤー_2" data-name="レイヤー 2"><g id="text"><path class="cls-1" d="M57.53,8.73h3.62v3.82h3.32V8.71l3.62,0,0,10.84-3.63,0V15.66H61.18v3.89H57.57Z"/><path class="cls-1" d="M73.69,8.67h3.62l0,10.84H73.73Z"/><path class="cls-1" d="M82.92,8.64l5.29,0a5.3,5.3,0,0,1,3.91,1.23,3.39,3.39,0,0,1,1,2.56v0A3.49,3.49,0,0,1,91,15.77l2.54,3.67-4.13,0-2.06-3.09h-.77v3.1H83Zm5.2,5.14c.87,0,1.39-.39,1.39-1.06v0c0-.7-.54-1-1.38-1H86.55v2.12Z"/><path class="cls-1" d="M97.47,14v0a5.74,5.74,0,0,1,5.91-5.67,5.67,5.67,0,0,1,5.92,5.6v0A5.92,5.92,0,0,1,97.47,14Zm8.18,0v0a2.33,2.33,0,0,0-2.29-2.44A2.29,2.29,0,0,0,101.13,14v0a2.27,2.27,0,1,0,4.52,0Z"/><path class="cls-1" d="M60.37,28.43H57.18V25.37l10,0V28.4H64l0,7.78H60.4Z"/><path class="cls-1" d="M73.93,25.24l3.6,0,4.6,10.91H78.2l-.58-1.45H73.83l-.55,1.46H69.4Zm2.79,6.88-1-2.63-1,2.64Z"/><path class="cls-1" d="M84,34.32l2.36-2a1.76,1.76,0,0,0,1.41.94c.61,0,1-.5,1-1.26l0-6.74h3.53l0,6.67a4.16,4.16,0,0,1-1.12,3.21,4.31,4.31,0,0,1-3.13,1.19A4.45,4.45,0,0,1,84,34.32Z"/><path class="cls-1" d="M97.49,25.23h3.63l0,10.84H97.53Z"/><path class="cls-1" d="M105.79,25.2h3.78l2.34,3.8,2.31-3.82H118L118,36h-3.61l0-5.37-2.48,3.86h-.06l-2.51-3.84,0,5.37h-3.55Z"/><path class="cls-1" d="M125.8,25.05h3.59L134,35.94l-3.94,0-.58-1.46-3.79,0L125.14,36h-3.88Zm2.78,6.89-1-2.63-1,2.63Z"/><rect class="cls-1" x="13.39" y="31.73" width="5.64" height="5.64" transform="translate(-19.68 21.59) rotate(-45)"/><polygon class="cls-1" points="24.45 22.33 28.44 26.32 34.55 20.21 40.67 26.32 44.66 22.33 28.44 6.11 24.45 10.1 30.56 16.22 24.45 22.33"/><polygon class="cls-1" points="20.21 10.1 20.21 10.1 26.32 3.99 22.33 0 0 22.33 3.99 26.32 10.1 20.21 16.22 26.32 16.22 26.32 24.45 34.55 18.34 40.67 22.33 44.66 38.55 28.44 34.55 24.45 28.44 30.56 20.21 22.33 20.21 22.33 14.1 16.22 20.21 10.1"/></g></g></svg>